<svg xmlns="http://www.w3.org/2000/svg" viewBox="0 0 600 800">
  <defs>
    <linearGradient id="g" x1="0%" y1="0%" x2="100%" y2="100%">
      <stop offset="0%" style="stop-color:#607888"/>
      <stop offset="100%" style="stop-color:#283848"/>
    </linearGradient>
  </defs>
  <rect width="600" height="800" fill="url(#g)"/>
  <!-- Lab flask / chemical container -->
  <path d="M260 180 L260 310 L180 430 L420 430 L340 310 L340 180 Z" fill="rgba(255,255,255,0.12)" stroke="rgba(255,255,255,0.30)" stroke-width="2"/>
  <rect x="250" y="165" width="100" height="22" rx="4" fill="rgba(255,255,255,0.28)" stroke="rgba(255,255,255,0.4)" stroke-width="1"/>
  <!-- Liquid inside -->
  <path d="M220 390 Q300 360 380 390 L420 430 L180 430 Z" fill="rgba(100,180,220,0.28)"/>
  <!-- Bubbles -->
  <circle cx="270" cy="400" r="6" fill="rgba(255,255,255,0.18)"/>
  <circle cx="310" cy="395" r="4" fill="rgba(255,255,255,0.14)"/>
  <circle cx="350" cy="408" r="5" fill="rgba(255,255,255,0.16)"/>
  <!-- GHS diamond symbol suggestion -->
  <rect x="265" y="188" width="70" height="12" rx="2" fill="rgba(255,255,255,0.15)"/>
  <!-- Molecule dots -->
  <circle cx="170" cy="250" r="10" fill="rgba(255,255,255,0.20)" stroke="rgba(255,255,255,0.35)" stroke-width="1"/>
  <circle cx="430" cy="280" r="8" fill="rgba(255,255,255,0.18)" stroke="rgba(255,255,255,0.30)" stroke-width="1"/>
  <circle cx="150" cy="350" r="6" fill="rgba(255,255,255,0.15)"/>
  <line x1="180" y1="255" x2="260" y2="290" stroke="rgba(255,255,255,0.15)" stroke-width="1"/>
  <line x1="420" y1="285" x2="345" y2="310" stroke="rgba(255,255,255,0.12)" stroke-width="1"/>
  <text x="300" y="575" font-family="Georgia,serif" font-size="42" fill="rgba(255,255,255,0.12)" text-anchor="middle">Chemie</text>
  <text x="300" y="635" font-family="Georgia,serif" font-size="26" fill="rgba(255,255,255,0.18)" text-anchor="middle" letter-spacing="4">INDUSTRIE</text>
</svg>
