<svg xmlns="http://www.w3.org/2000/svg" viewBox="0 0 600 800">
  <defs>
    <linearGradient id="g" x1="0%" y1="0%" x2="100%" y2="100%">
      <stop offset="0%" style="stop-color:#c89840"/>
      <stop offset="100%" style="stop-color:#785018"/>
    </linearGradient>
  </defs>
  <rect width="600" height="800" fill="url(#g)"/>
  <!-- Capsule shapes -->
  <g transform="translate(220,200) rotate(-30)">
    <rect x="0" y="0" width="50" height="110" rx="25" fill="rgba(255,255,255,0.35)"/>
    <rect x="0" y="0" width="50" height="55" rx="25" fill="rgba(255,255,255,0.55)"/>
  </g>
  <g transform="translate(300,240) rotate(20)">
    <rect x="0" y="0" width="44" height="96" rx="22" fill="rgba(255,255,255,0.28)"/>
    <rect x="0" y="0" width="44" height="48" rx="22" fill="rgba(255,255,255,0.48)"/>
  </g>
  <g transform="translate(340,190) rotate(-15)">
    <rect x="0" y="0" width="38" height="84" rx="19" fill="rgba(255,255,255,0.22)"/>
    <rect x="0" y="0" width="38" height="42" rx="19" fill="rgba(255,255,255,0.40)"/>
  </g>
  <!-- Powder suggestion -->
  <ellipse cx="300" cy="430" rx="140" ry="20" fill="rgba(255,255,255,0.10)"/>
  <circle cx="220" cy="420" r="4" fill="rgba(255,255,255,0.30)"/>
  <circle cx="260" cy="435" r="3" fill="rgba(255,255,255,0.22)"/>
  <circle cx="350" cy="425" r="5" fill="rgba(255,255,255,0.28)"/>
  <circle cx="380" cy="440" r="3" fill="rgba(255,255,255,0.20)"/>
  <text x="300" y="570" font-family="Georgia,serif" font-size="48" fill="rgba(255,255,255,0.12)" text-anchor="middle">Kapseln</text>
  <text x="300" y="630" font-family="Georgia,serif" font-size="28" fill="rgba(255,255,255,0.18)" text-anchor="middle" letter-spacing="4">PULVER</text>
</svg>
